# xmcd CD database file
#
# Track frame offsets:
#	150
#	12900
#	21845
#	40817
#	64630
#	74747
#	88820
#	107085
#	128290
#	159072
#	184582
#	198930
#	207880
#	226652
#	248612
#
# Disc length: 3547 seconds
#
# Revision: 0
# Processed by: cddbd v1.5.1PL2 Copyright (c) Steve Scherf et al.
# Submitted via: CDex 1.50beta10
#
DISCID=b50dd90f
DTITLE=Dante T.S. Hawk - Don't Hesitate (to get out there)
DYEAR=2017
DGENRE=Jazz
TTITLE0=Oh So Utterly Mad Around You
TTITLE1=My River Came Forth In A Flood #1
TTITLE2=Scratch Suite
TTITLE3=Take That Big Engine Down Yonder
TTITLE4=Mutfat (to your mother and father)
TTITLE5=Hard News
TTITLE6=Circular Movement
TTITLE7=System Error
TTITLE8=Killing Song
TTITLE9=My River Came Forth In A Flood #2
TTITLE10=One 2 Three 4 and Get Back
TTITLE11=A Study In Black and White
TTITLE12=Le Grand Bon Route Magnifique
TTITLE13=Bluesteamer
TTITLE14=Bend The Beautiful (Bonus)
EXTD=YEAR: 2017
EXTT0=
EXTT1=
EXTT2=
EXTT3=
EXTT4=
EXTT5=
EXTT6=
EXTT7=
EXTT8=
EXTT9=
EXTT10=
EXTT11=
EXTT12=
EXTT13=
EXTT14=
PLAYORDER=
